<svg width="18" height="18" viewBox="0 0 18 18" fill="none" xmlns="http://www.w3.org/2000/svg">
<path d="M2.74996 2.74996C2.74996 2.08693 3.01335 1.45106 3.48218 0.982222C3.95102 0.513388 4.58689 0.25 5.24993 0.25C5.91296 0.25 6.54883 0.513388 7.01767 0.982222C7.4865 1.45106 7.74989 2.08693 7.74989 2.74996C7.74989 3.41299 7.4865 4.04887 7.01767 4.5177C6.54883 4.98654 5.91296 5.24993 5.24993 5.24993C4.58689 5.24993 3.95102 4.98654 3.48218 4.5177C3.01335 4.04887 2.74996 3.41299 2.74996 2.74996ZM11.2236 4.72993L11.2761 4.76993C11.8064 5.16306 12.4708 5.33045 13.1241 5.23556C13.7774 5.14068 14.3667 4.79124 14.7633 4.26348C15.1599 3.73573 15.3317 3.07252 15.2411 2.41859C15.1505 1.76466 14.805 1.1731 14.2799 0.773007C13.7548 0.372914 13.0927 0.196772 12.4382 0.283021C11.7837 0.36927 11.1898 0.710909 10.7863 1.23338C10.3827 1.75585 10.2022 2.41673 10.2842 3.0718C10.3661 3.72687 10.7038 4.32294 11.2236 4.72993ZM6.8349 6.49991C6.9919 6.20262 7.20725 5.94005 7.46807 5.72791C7.72889 5.51577 8.02982 5.35841 8.35286 5.26526C8.6759 5.17211 9.01441 5.14507 9.34814 5.18577C9.68187 5.22646 10.004 5.33405 10.2951 5.5021C10.5863 5.67015 10.8406 5.89521 11.0428 6.16381C11.245 6.43241 11.391 6.73904 11.4719 7.06535C11.5529 7.39165 11.5672 7.73094 11.514 8.06291C11.4608 8.39487 11.3412 8.7127 11.1623 8.99737C10.8182 9.54502 10.2753 9.938 9.64753 10.0937C9.01979 10.2495 8.3561 10.1559 7.79592 9.83259C7.23574 9.5093 6.82265 8.98148 6.64345 8.36002C6.46424 7.73856 6.53287 7.07183 6.8349 6.49991ZM2.12497 6.49991H5.46242C5.24027 7.13434 5.19196 7.81668 5.32253 8.47608C5.45309 9.13549 5.75776 9.74794 6.20491 10.2499H5.87492C5.23047 10.2498 4.60175 10.4488 4.0748 10.8198C3.54785 11.1908 3.14843 11.7156 2.93121 12.3223C2.51163 12.1538 2.11878 11.9251 1.76498 11.6436C0.824991 10.8873 0.25 9.76986 0.25 8.37488C0.25 7.8776 0.447541 7.4007 0.799167 7.04907C1.15079 6.69745 1.6277 6.49991 2.12497 6.49991ZM12.1248 10.2499C12.7691 10.2498 13.3976 10.449 13.9244 10.82C14.4511 11.191 14.8503 11.7157 15.0673 12.3223C15.4923 12.1486 15.886 11.9223 16.2348 11.6436C17.1747 10.8873 17.7497 9.76986 17.7497 8.37488C17.7497 7.8776 17.5522 7.4007 17.2006 7.04907C16.8489 6.69745 16.372 6.49991 15.8748 6.49991H12.5373C12.6748 6.89115 12.7498 7.31239 12.7498 7.74989C12.751 8.67252 12.4108 9.56297 11.7948 10.2499H12.1248ZM13.8585 12.6598C13.9498 12.8798 13.9998 13.1223 13.9998 13.3748C13.9998 14.7698 13.4261 15.8873 12.4848 16.6435C11.5586 17.3872 10.3161 17.7497 8.99987 17.7497C7.68364 17.7497 6.44116 17.3872 5.51492 16.6435C4.57493 15.8873 3.99994 14.7698 3.99994 13.3748C3.99928 13.1284 4.04733 12.8843 4.14132 12.6565C4.23532 12.4287 4.3734 12.2218 4.54764 12.0475C4.72188 11.8733 4.92884 11.7352 5.15662 11.6412C5.3844 11.5472 5.62851 11.4992 5.87492 11.4998H12.1248C12.4962 11.4997 12.8592 11.6099 13.1679 11.8165C13.4765 12.023 13.7169 12.3165 13.8585 12.6598Z" fill="#00FBDD"/>
</svg>
