<svg width="18" height="18" viewBox="0 0 18 18" fill="none" xmlns="http://www.w3.org/2000/svg">
<path d="M17.0917 15.9083L15.9083 17.0917C15.7522 17.2469 15.541 17.334 15.3208 17.334C15.1007 17.334 14.8895 17.2469 14.7333 17.0917L4.83334 7.20834C4.56235 7.28685 4.28211 7.32888 4.00001 7.33334C3.46943 7.33296 2.9466 7.20593 2.475 6.96281C2.0034 6.71969 1.59665 6.3675 1.28856 5.93553C0.980476 5.50356 0.779959 5.00428 0.703682 4.47921C0.627404 3.95414 0.677571 3.41845 0.85001 2.91667L2.96668 5.03334L3.40834 4.59167L4.59168 3.40834L5.03334 2.96667L2.91668 0.850005C3.41845 0.677566 3.95415 0.6274 4.47922 0.703677C5.00429 0.779954 5.50356 0.980471 5.93553 1.28856C6.3675 1.59664 6.71969 2.00339 6.96281 2.475C7.20593 2.9466 7.33296 3.46942 7.33334 4.00001C7.32889 4.2821 7.28685 4.56235 7.20834 4.83334L17.0917 14.7333C17.2469 14.8895 17.334 15.1007 17.334 15.3208C17.334 15.541 17.2469 15.7522 17.0917 15.9083ZM0.908343 14.7333C0.753134 14.8895 0.666016 15.1007 0.666016 15.3208C0.666016 15.541 0.753134 15.7522 0.908343 15.9083L2.09168 17.0917C2.24781 17.2469 2.45902 17.334 2.67918 17.334C2.89933 17.334 3.11054 17.2469 3.26668 17.0917L7.82501 12.5417L5.46668 10.1833M15.6667 0.666672L12.3333 2.33334V4.00001L10.525 5.80834L12.1917 7.47501L14 5.66667H15.6667L17.3333 2.33334L15.6667 0.666672Z" fill="#00FBDD"/>
</svg>
