<svg width="18" height="18" viewBox="0 0 18 18" fill="none" xmlns="http://www.w3.org/2000/svg">
<path d="M8.9995 14.5117L5.08763 17.4985C4.8938 17.657 4.68235 17.7321 4.45328 17.7236C4.2242 17.7152 4.02156 17.6489 3.84535 17.5249C3.66914 17.4015 3.53275 17.2341 3.43619 17.0227C3.33963 16.8112 3.33505 16.5822 3.42245 16.3355L4.92904 11.4456L1.09647 8.72318C0.88502 8.58222 0.752862 8.3972 0.699999 8.16812C0.647136 7.93905 0.655947 7.7276 0.726431 7.53377C0.796915 7.33993 0.920262 7.16795 1.09647 7.01782C1.27268 6.86769 1.48413 6.79298 1.73083 6.79368H6.46207L7.9951 1.71883C8.08321 1.47213 8.21994 1.28253 8.40532 1.15002C8.59069 1.01751 8.78875 0.951609 8.9995 0.952314C9.21095 0.952314 9.40936 1.01857 9.59474 1.15108C9.78011 1.28359 9.9165 1.47284 10.0039 1.71883L11.5369 6.79368H16.2682C16.5149 6.79368 16.7263 6.86875 16.9025 7.01888C17.0787 7.16901 17.2021 7.34064 17.2726 7.53377C17.3431 7.7276 17.3519 7.93905 17.299 8.16812C17.2461 8.3972 17.114 8.58222 16.9025 8.72318L13.07 11.4456L14.5766 16.3355C14.6647 16.5822 14.6604 16.8112 14.5639 17.0227C14.4673 17.2341 14.3306 17.4015 14.1536 17.5249C13.9774 17.6482 13.7748 17.7145 13.5457 17.7236C13.3166 17.7328 13.1052 17.6577 12.9114 17.4985L8.9995 14.5117Z" fill="#00FBDD"/>
</svg>
