<svg width="28" height="28" viewBox="0 0 28 28" fill="none" xmlns="http://www.w3.org/2000/svg">
<path d="M22.2022 8.25007L21.3434 6.34165L19.4349 5.48286C19.3159 5.42864 19.2151 5.34134 19.1443 5.23136C19.0736 5.12139 19.0359 4.99338 19.0359 4.86262C19.0359 4.73185 19.0736 4.60385 19.1443 4.49387C19.2151 4.3839 19.3159 4.2966 19.4349 4.24238L21.3434 3.38359L22.2022 1.47516C22.2564 1.35617 22.3437 1.25528 22.4537 1.18453C22.5636 1.11379 22.6916 1.07617 22.8224 1.07617C22.9532 1.07617 23.0812 1.11379 23.1911 1.18453C23.3011 1.25528 23.3884 1.35617 23.4426 1.47516L24.3014 3.38359L26.2099 4.24238C26.3288 4.2966 26.4297 4.3839 26.5005 4.49387C26.5712 4.60385 26.6088 4.73185 26.6088 4.86262C26.6088 4.99338 26.5712 5.12139 26.5005 5.23136C26.4297 5.34134 26.3288 5.42864 26.2099 5.48286L24.3014 6.34165L23.4426 8.25007C23.2109 8.78171 22.4475 8.78171 22.2022 8.25007ZM26.6188 14.6978L26.1826 13.7163C26.1284 13.5974 26.0411 13.4965 25.9311 13.4257C25.8211 13.355 25.6931 13.3174 25.5623 13.3174C25.4316 13.3174 25.3036 13.355 25.1936 13.4257C25.0836 13.4965 24.9963 13.5974 24.9421 13.7163L24.5059 14.6978L23.5108 15.134C23.3918 15.1883 23.2909 15.2756 23.2202 15.3855C23.1494 15.4955 23.1118 15.6235 23.1118 15.7543C23.1118 15.885 23.1494 16.013 23.2202 16.123C23.2909 16.233 23.3918 16.3203 23.5108 16.3745L24.4923 16.8107L24.9285 17.8058C24.9827 17.9248 25.07 18.0257 25.18 18.0965C25.2899 18.1672 25.418 18.2048 25.5487 18.2048C25.6795 18.2048 25.8075 18.1672 25.9175 18.0965C26.0274 18.0257 26.1147 17.9248 26.169 17.8058L26.6052 16.8244L27.6003 16.3881C27.7193 16.3339 27.8202 16.2466 27.8909 16.1367C27.9617 16.0267 27.9993 15.8987 27.9993 15.7679C27.9993 15.6371 27.9617 15.5091 27.8909 15.3992C27.8202 15.2892 27.7193 15.2019 27.6003 15.1477L26.6188 14.6978ZM19.7485 16.947L21.4252 18.2148C21.9704 18.6237 22.1204 19.3871 21.7796 19.9869L19.5713 23.8037C19.2305 24.4035 18.4944 24.6489 17.8673 24.3763L15.918 23.5584C15.6454 23.7356 15.3455 23.9128 15.0456 24.0627L14.7866 26.162C14.7048 26.8436 14.1186 27.3616 13.437 27.3616H9.03402C8.35244 27.3616 7.76628 26.8436 7.68449 26.162L7.42549 24.0627C7.12559 23.9128 6.83933 23.7492 6.55307 23.5584L4.60374 24.3763C3.97669 24.6489 3.24058 24.4035 2.89979 23.8037L0.691472 19.9869C0.350682 19.3871 0.50063 18.6374 1.04589 18.2148L2.72258 16.947V16.4427C2.72258 16.2791 2.72258 16.1019 2.73621 15.9383L1.05953 14.6706C0.514261 14.2616 0.364314 13.4982 0.705104 12.8985L2.91343 9.0816C3.25422 8.48181 3.99032 8.23644 4.61738 8.50907L6.5667 9.32697C6.83933 9.14976 7.13923 8.97255 7.43912 8.8226L7.69812 6.72333C7.76628 6.05538 8.35244 5.53738 9.03402 5.53738H13.437C14.1186 5.53738 14.7048 6.05538 14.7866 6.73697L15.0456 8.83623C15.3455 8.98618 15.6317 9.14976 15.918 9.3406L17.8673 8.52271C18.4944 8.25007 19.2305 8.49544 19.5713 9.09523L21.7796 12.9121C22.1204 13.5119 21.9704 14.2616 21.4252 14.6842L19.7485 15.9519C19.7621 16.1155 19.7621 16.2791 19.7621 16.4563C19.7621 16.6335 19.7621 16.7835 19.7485 16.947ZM15.3318 16.4427C15.3318 14.1798 13.5052 12.3532 11.2423 12.3532C8.97949 12.3532 7.15286 14.1798 7.15286 16.4427C7.15286 18.7055 8.97949 20.5322 11.2423 20.5322C13.5052 20.5322 15.3318 18.7055 15.3318 16.4427Z" fill="#121212"/>
</svg>
