<svg width="20" height="20" viewBox="0 0 20 20" fill="none" xmlns="http://www.w3.org/2000/svg">
<path d="M4.08854 16.6595C3.27151 16.6595 2.57376 16.3667 1.9953 15.7812C1.41684 15.1956 1.11372 14.4875 1.08594 13.6569C1.08594 13.5343 1.09275 13.4118 1.10636 13.2892C1.11998 13.1666 1.14041 13.0441 1.16764 12.9215L2.88341 6.05845C3.07406 5.32311 3.46215 4.72722 4.04769 4.27077C4.63323 3.81432 5.30048 3.58637 6.04942 3.58692H14.0155C14.7645 3.58692 15.4317 3.81514 16.0173 4.27159C16.6028 4.72804 16.9909 5.32366 17.1815 6.05845L18.8973 12.9215C18.9245 13.0441 18.9485 13.1702 18.9692 13.2998C18.9899 13.4295 19 13.5553 18.9994 13.6773C18.9994 14.5079 18.7031 15.2128 18.1105 15.7918C17.5179 16.3708 16.8068 16.66 15.9772 16.6595C15.4053 16.6595 14.8742 16.5097 14.384 16.2101C13.8938 15.9105 13.5261 15.502 13.281 14.9846L12.7091 13.7999C12.641 13.6637 12.5389 13.5615 12.4027 13.4935C12.2665 13.4254 12.1233 13.3913 11.9729 13.3913H8.09201C7.94222 13.3913 7.79924 13.4254 7.66307 13.4935C7.5269 13.5615 7.42477 13.6637 7.35668 13.7999L6.78476 14.9846C6.53965 15.502 6.17198 15.9105 5.68176 16.2101C5.19154 16.5097 4.66047 16.6595 4.08854 16.6595ZM11.258 9.30616C11.4895 9.30616 11.6837 9.22772 11.8406 9.07085C11.9974 8.91398 12.0756 8.72007 12.0751 8.48912C12.0751 8.25763 11.9966 8.06345 11.8398 7.90658C11.6829 7.74971 11.489 7.67155 11.258 7.67209C11.0265 7.67209 10.8323 7.75053 10.6755 7.9074C10.5186 8.06427 10.4404 8.25818 10.441 8.48912C10.441 8.72062 10.5194 8.9148 10.6763 9.07167C10.8332 9.22854 11.0271 9.3067 11.258 9.30616ZM12.8921 7.67209C13.1236 7.67209 13.3178 7.59365 13.4746 7.43678C13.6315 7.27991 13.7097 7.086 13.7091 6.85505C13.7091 6.62356 13.6307 6.42938 13.4738 6.27251C13.317 6.11564 13.123 6.03748 12.8921 6.03802C12.6606 6.03802 12.4664 6.11646 12.3095 6.27333C12.1527 6.4302 12.0745 6.62411 12.0751 6.85505C12.0751 7.08655 12.1535 7.28073 12.3104 7.4376C12.4672 7.59447 12.6611 7.67263 12.8921 7.67209ZM12.8921 10.9402C13.1236 10.9402 13.3178 10.8618 13.4746 10.7049C13.6315 10.5481 13.7097 10.3541 13.7091 10.1232C13.7091 9.8917 13.6307 9.69752 13.4738 9.54065C13.317 9.38378 13.123 9.30561 12.8921 9.30616C12.6606 9.30616 12.4664 9.38459 12.3095 9.54147C12.1527 9.69834 12.0745 9.89225 12.0751 10.1232C12.0751 10.3547 12.1535 10.5489 12.3104 10.7057C12.4672 10.8626 12.6611 10.9408 12.8921 10.9402ZM14.5262 9.30616C14.7577 9.30616 14.9518 9.22772 15.1087 9.07085C15.2656 8.91398 15.3437 8.72007 15.3432 8.48912C15.3432 8.25763 15.2648 8.06345 15.1079 7.90658C14.951 7.74971 14.7571 7.67155 14.5262 7.67209C14.2947 7.67209 14.1005 7.75053 13.9436 7.9074C13.7867 8.06427 13.7086 8.25818 13.7091 8.48912C13.7091 8.72062 13.7876 8.9148 13.9444 9.07167C14.1013 9.22854 14.2952 9.3067 14.5262 9.30616ZM7.17285 10.5317C7.34987 10.5317 7.49612 10.4737 7.6116 10.3577C7.72707 10.2417 7.78508 10.0954 7.78562 9.91894V9.1019H8.60266C8.77968 9.1019 8.92593 9.04389 9.04141 8.92787C9.15688 8.81185 9.21489 8.6656 9.21544 8.48912C9.21544 8.3121 9.15743 8.16585 9.04141 8.05038C8.92539 7.9349 8.77914 7.87689 8.60266 7.87635H7.78562V7.05931C7.78562 6.88229 7.72761 6.73604 7.6116 6.62057C7.49558 6.50509 7.34933 6.44708 7.17285 6.44654C6.99582 6.44654 6.84957 6.50455 6.7341 6.62057C6.61863 6.73658 6.56062 6.88283 6.56007 7.05931V7.87635H5.74304C5.56601 7.87635 5.41976 7.93436 5.30429 8.05038C5.18882 8.1664 5.13081 8.31265 5.13026 8.48912C5.13026 8.66615 5.18827 8.8124 5.30429 8.92787C5.42031 9.04335 5.56656 9.10136 5.74304 9.1019H6.56007V9.91894C6.56007 10.096 6.61808 10.2422 6.7341 10.3577C6.85012 10.4732 6.99637 10.5312 7.17285 10.5317Z" fill="#121212"/>
</svg>
