<svg width="20" height="20" viewBox="0 0 20 20" fill="none" xmlns="http://www.w3.org/2000/svg">
<path d="M18.0917 16.9087L16.9083 18.092C16.7522 18.2472 16.541 18.3343 16.3208 18.3343C16.1007 18.3343 15.8895 18.2472 15.7333 18.092L5.83334 8.20866C5.56235 8.28717 5.28211 8.3292 5.00001 8.33366C4.46943 8.33328 3.9466 8.20625 3.475 7.96313C3.0034 7.72001 2.59665 7.36782 2.28856 6.93585C1.98048 6.50388 1.77996 6.0046 1.70368 5.47953C1.6274 4.95446 1.67757 4.41877 1.85001 3.91699L3.96668 6.03366L4.40834 5.59199L5.59168 4.40866L6.03334 3.96699L3.91668 1.85033C4.41845 1.67789 4.95415 1.62772 5.47922 1.704C6.00429 1.78027 6.50356 1.98079 6.93553 2.28888C7.3675 2.59696 7.71969 3.00372 7.96281 3.47532C8.20593 3.94692 8.33296 4.46974 8.33334 5.00033C8.32889 5.28242 8.28685 5.56267 8.20834 5.83366L18.0917 15.7337C18.2469 15.8898 18.334 16.101 18.334 16.3212C18.334 16.5413 18.2469 16.7525 18.0917 16.9087ZM1.90834 15.7337C1.75313 15.8898 1.66602 16.101 1.66602 16.3212C1.66602 16.5413 1.75313 16.7525 1.90834 16.9087L3.09168 18.092C3.24781 18.2472 3.45902 18.3343 3.67918 18.3343C3.89933 18.3343 4.11054 18.2472 4.26668 18.092L8.82501 13.542L6.46668 11.1837M16.6667 1.66699L13.3333 3.33366V5.00033L11.525 6.80866L13.1917 8.47533L15 6.66699H16.6667L18.3333 3.33366L16.6667 1.66699Z" fill="#121212"/>
</svg>
