<svg width="20" height="20" viewBox="0 0 20 20" fill="none" xmlns="http://www.w3.org/2000/svg">
<path d="M9.99967 10.0084C10.4809 10.0084 10.893 9.83689 11.236 9.49391C11.579 9.15092 11.7502 8.73911 11.7496 8.25846C11.7496 7.77724 11.5781 7.36513 11.2351 7.02215C10.8921 6.67916 10.4803 6.50796 9.99967 6.50854C9.51845 6.50854 9.10634 6.68004 8.76336 7.02302C8.42037 7.36601 8.24917 7.77782 8.24976 8.25846C8.24976 8.73969 8.42125 9.1518 8.76423 9.49478C9.10722 9.83777 9.51903 10.009 9.99967 10.0084ZM9.99967 18.4299C9.88301 18.4299 9.76635 18.408 9.64969 18.3642C9.53303 18.3205 9.43095 18.2622 9.34346 18.1893C7.21439 16.3081 5.62488 14.5617 4.57493 12.95C3.52498 11.3383 3 9.83281 3 8.43346C3 6.24606 3.70376 4.50343 5.11128 3.20557C6.5188 1.90772 8.14826 1.25879 9.99967 1.25879C11.8517 1.25879 13.4814 1.90772 14.8889 3.20557C16.2965 4.50343 16.9999 6.24606 16.9993 8.43346C16.9993 9.83339 16.4744 11.3392 15.4244 12.9509C14.3745 14.5625 12.785 16.3087 10.6559 18.1893C10.5684 18.2622 10.4663 18.3205 10.3497 18.3642C10.233 18.408 10.1163 18.4299 9.99967 18.4299Z" fill="#121212"/>
</svg>
