<svg width="20" height="20" viewBox="0 0 20 20" fill="none" xmlns="http://www.w3.org/2000/svg">
<path d="M3.74996 3.74996C3.74996 3.08693 4.01335 2.45106 4.48218 1.98222C4.95102 1.51339 5.58689 1.25 6.24993 1.25C6.91296 1.25 7.54883 1.51339 8.01767 1.98222C8.4865 2.45106 8.74989 3.08693 8.74989 3.74996C8.74989 4.41299 8.4865 5.04887 8.01767 5.5177C7.54883 5.98654 6.91296 6.24993 6.24993 6.24993C5.58689 6.24993 4.95102 5.98654 4.48218 5.5177C4.01335 5.04887 3.74996 4.41299 3.74996 3.74996ZM12.2236 5.72993L12.2761 5.76993C12.8064 6.16306 13.4708 6.33045 14.1241 6.23556C14.7774 6.14068 15.3667 5.79124 15.7633 5.26348C16.1599 4.73573 16.3317 4.07252 16.2411 3.41859C16.1505 2.76466 15.805 2.1731 15.2799 1.77301C14.7548 1.37291 14.0927 1.19677 13.4382 1.28302C12.7837 1.36927 12.1898 1.71091 11.7863 2.23338C11.3827 2.75585 11.2022 3.41673 11.2842 4.0718C11.3661 4.72687 11.7038 5.32294 12.2236 5.72993ZM7.8349 7.49991C7.9919 7.20262 8.20725 6.94005 8.46807 6.72791C8.72889 6.51577 9.02982 6.35841 9.35286 6.26526C9.6759 6.17211 10.0144 6.14507 10.3481 6.18577C10.6819 6.22646 11.004 6.33405 11.2951 6.5021C11.5863 6.67015 11.8406 6.89521 12.0428 7.16381C12.245 7.43241 12.391 7.73904 12.4719 8.06535C12.5529 8.39165 12.5672 8.73094 12.514 9.06291C12.4608 9.39487 12.3412 9.7127 12.1623 9.99737C11.8182 10.545 11.2753 10.938 10.6475 11.0937C10.0198 11.2495 9.3561 11.1559 8.79592 10.8326C8.23574 10.5093 7.82265 9.98148 7.64345 9.36002C7.46424 8.73856 7.53287 8.07183 7.8349 7.49991ZM3.12497 7.49991H6.46242C6.24027 8.13434 6.19196 8.81668 6.32253 9.47608C6.45309 10.1355 6.75776 10.7479 7.20491 11.2499H6.87492C6.23047 11.2498 5.60175 11.4488 5.0748 11.8198C4.54785 12.1908 4.14843 12.7156 3.93121 13.3223C3.51163 13.1538 3.11878 12.9251 2.76498 12.6436C1.82499 11.8873 1.25 10.7699 1.25 9.37488C1.25 8.8776 1.44754 8.4007 1.79917 8.04907C2.15079 7.69745 2.6277 7.49991 3.12497 7.49991ZM13.1248 11.2499C13.7691 11.2498 14.3976 11.449 14.9244 11.82C15.4511 12.191 15.8503 12.7157 16.0673 13.3223C16.4923 13.1486 16.886 12.9223 17.2348 12.6436C18.1747 11.8873 18.7497 10.7699 18.7497 9.37488C18.7497 8.8776 18.5522 8.4007 18.2006 8.04907C17.8489 7.69745 17.372 7.49991 16.8748 7.49991H13.5373C13.6748 7.89115 13.7498 8.31239 13.7498 8.74989C13.751 9.67252 13.4108 10.563 12.7948 11.2499H13.1248ZM14.8585 13.6598C14.9498 13.8798 14.9998 14.1223 14.9998 14.3748C14.9998 15.7698 14.4261 16.8873 13.4848 17.6435C12.5586 18.3872 11.3161 18.7497 9.99987 18.7497C8.68364 18.7497 7.44116 18.3872 6.51492 17.6435C5.57493 16.8873 4.99994 15.7698 4.99994 14.3748C4.99928 14.1284 5.04733 13.8843 5.14132 13.6565C5.23532 13.4287 5.3734 13.2218 5.54764 13.0475C5.72188 12.8733 5.92884 12.7352 6.15662 12.6412C6.3844 12.5472 6.62851 12.4992 6.87492 12.4998H13.1248C13.4962 12.4997 13.8592 12.6099 14.1679 12.8165C14.4765 13.023 14.7169 13.3165 14.8585 13.6598Z" fill="#121212"/>
</svg>
