<svg width="32" height="32" viewBox="0 0 32 32" fill="none" xmlns="http://www.w3.org/2000/svg">
<path d="M5.99994 6.00092C5.99994 4.94007 6.42136 3.92267 7.1715 3.17253C7.92163 2.4224 8.93903 2.00098 9.99988 2.00098C11.0607 2.00098 12.0781 2.4224 12.8283 3.17253C13.5784 3.92267 13.9998 4.94007 13.9998 6.00092C13.9998 7.06177 13.5784 8.07917 12.8283 8.8293C12.0781 9.57944 11.0607 10.0009 9.99988 10.0009C8.93903 10.0009 7.92163 9.57944 7.1715 8.8293C6.42136 8.07917 5.99994 7.06177 5.99994 6.00092ZM19.5577 9.16887L19.6417 9.23287C20.4903 9.86187 21.5532 10.1297 22.5985 9.97788C23.6439 9.82607 24.5867 9.26695 25.2213 8.42255C25.8559 7.57815 26.1307 6.51701 25.9858 5.47072C25.8409 4.42444 25.288 3.47794 24.4478 2.83779C23.6076 2.19764 22.5483 1.91581 21.5011 2.05381C20.4539 2.19181 19.5037 2.73843 18.8581 3.57438C18.2124 4.41034 17.9236 5.46775 18.0546 6.51586C18.1857 7.56397 18.7261 8.51769 19.5577 9.16887ZM12.5358 12.0008C12.787 11.5252 13.1316 11.1051 13.5489 10.7656C13.9662 10.4262 14.4477 10.1744 14.9646 10.0254C15.4814 9.87635 16.0231 9.83309 16.557 9.8982C17.091 9.96332 17.6063 10.1355 18.0722 10.4043C18.5381 10.6732 18.945 11.0333 19.2685 11.4631C19.592 11.8928 19.8256 12.3834 19.9551 12.9055C20.0846 13.4276 20.1075 13.9705 20.0224 14.5016C19.9373 15.0328 19.7459 15.5413 19.4597 15.9968C18.9092 16.873 18.0405 17.5018 17.0361 17.751C16.0317 18.0002 14.9698 17.8504 14.0735 17.3331C13.1772 16.8159 12.5162 15.9713 12.2295 14.977C11.9428 13.9827 12.0526 12.9159 12.5358 12.0008ZM4.99996 12.0008H10.3399C9.98443 13.0159 9.90714 14.1077 10.116 15.1627C10.3249 16.2178 10.8124 17.1977 11.5279 18.0007H10.9999C9.96876 18.0006 8.96279 18.3191 8.11968 18.9127C7.27656 19.5063 6.63749 20.3459 6.28994 21.3167C5.61861 21.047 4.99005 20.6812 4.42396 20.2307C2.91999 19.0207 2 17.2327 2 15.0008C2 14.2051 2.31607 13.4421 2.87867 12.8795C3.44127 12.3169 4.20432 12.0008 4.99996 12.0008ZM20.9997 18.0007C22.0306 18.0007 23.0362 18.3193 23.879 18.9129C24.7218 19.5065 25.3605 20.3461 25.7076 21.3167C26.3876 21.0387 27.0176 20.6767 27.5756 20.2307C29.0796 19.0207 29.9996 17.2327 29.9996 15.0008C29.9996 14.2051 29.6835 13.4421 29.1209 12.8795C28.5583 12.3169 27.7953 12.0008 26.9996 12.0008H21.6597C21.8797 12.6268 21.9997 13.3008 21.9997 14.0008C22.0016 15.477 21.4573 16.9017 20.4717 18.0007H20.9997ZM23.7737 21.8567C23.9197 22.2087 23.9997 22.5967 23.9997 23.0007C23.9997 25.2326 23.0817 27.0206 21.5757 28.2306C20.0937 29.4206 18.1058 30.0006 15.9998 30.0006C13.8938 30.0006 11.9059 29.4206 10.4239 28.2306C8.9199 27.0206 7.99991 25.2326 7.99991 23.0007C7.99886 22.6064 8.07573 22.2158 8.22612 21.8514C8.37651 21.4869 8.59744 21.1558 8.87622 20.877C9.155 20.5982 9.48614 20.3773 9.85059 20.2269C10.215 20.0765 10.6056 19.9997 10.9999 20.0007H20.9997C21.5939 20.0006 22.1748 20.1769 22.6686 20.5073C23.1625 20.8377 23.5471 21.3074 23.7737 21.8567Z" fill="#121212"/>
</svg>
