<svg width="20" height="20" viewBox="0 0 20 20" fill="none" xmlns="http://www.w3.org/2000/svg">
<path d="M9.9995 15.5115L6.08763 18.4983C5.8938 18.6569 5.68235 18.7319 5.45328 18.7235C5.2242 18.715 5.02156 18.6488 4.84535 18.5247C4.66914 18.4014 4.53275 18.234 4.43619 18.0225C4.33963 17.8111 4.33505 17.582 4.42245 17.3353L5.92904 12.4455L2.09647 9.72302C1.88502 9.58206 1.75286 9.39704 1.7 9.16796C1.64714 8.93889 1.65595 8.72744 1.72643 8.53361C1.79691 8.33977 1.92026 8.16779 2.09647 8.01766C2.27268 7.86753 2.48413 7.79282 2.73083 7.79352H7.46207L8.9951 2.71867C9.08321 2.47197 9.21994 2.28237 9.40532 2.14986C9.59069 2.01735 9.78875 1.95145 9.9995 1.95215C10.211 1.95215 10.4094 2.01841 10.5947 2.15092C10.7801 2.28343 10.9165 2.47268 11.0039 2.71867L12.5369 7.79352H17.2682C17.5149 7.79352 17.7263 7.86859 17.9025 8.01872C18.0787 8.16885 18.2021 8.34048 18.2726 8.53361C18.3431 8.72744 18.3519 8.93889 18.299 9.16796C18.2461 9.39704 18.114 9.58206 17.9025 9.72302L14.07 12.4455L15.5766 17.3353C15.6647 17.582 15.6604 17.8111 15.5639 18.0225C15.4673 18.234 15.3306 18.4014 15.1536 18.5247C14.9774 18.6481 14.7748 18.7143 14.5457 18.7235C14.3166 18.7327 14.1052 18.6576 13.9114 18.4983L9.9995 15.5115Z" fill="#121212"/>
</svg>
