<svg width="28" height="28" viewBox="0 0 28 28" fill="none" xmlns="http://www.w3.org/2000/svg">
<path d="M4.79409 24.345C3.52253 24.345 2.43661 23.8894 1.53635 22.9781C0.636078 22.0668 0.164327 20.9648 0.121094 19.672C0.121094 19.4813 0.13169 19.2906 0.152883 19.0998C0.174076 18.9091 0.205865 18.7184 0.24825 18.5276L2.91854 7.84649C3.21523 6.70208 3.81923 5.77468 4.73052 5.0643C5.6418 4.35392 6.68025 3.99915 7.84585 4H20.2436C21.4092 4 22.4477 4.35519 23.3589 5.06557C24.2702 5.77595 24.8742 6.70292 25.1709 7.84649L27.8412 18.5276C27.8836 18.7184 27.9209 18.9146 27.9531 19.1164C27.9853 19.3181 28.001 19.5139 28.0002 19.7038C28.0002 20.9966 27.539 22.0935 26.6167 22.9946C25.6944 23.8958 24.5877 24.3459 23.2966 24.345C22.4065 24.345 21.58 24.1119 20.8171 23.6457C20.0541 23.1794 19.4819 22.5437 19.1005 21.7383L18.2104 19.8946C18.1044 19.6826 17.9455 19.5237 17.7335 19.4177C17.5216 19.3118 17.2987 19.2588 17.0647 19.2588H11.0248C10.7916 19.2588 10.5691 19.3118 10.3572 19.4177C10.1453 19.5237 9.98632 19.6826 9.88035 19.8946L8.99026 21.7383C8.60879 22.5437 8.03658 23.1794 7.27364 23.6457C6.51071 24.1119 5.68419 24.345 4.79409 24.345ZM15.9521 12.901C16.3123 12.901 16.6146 12.7789 16.8587 12.5347C17.1028 12.2906 17.2245 11.9888 17.2236 11.6294C17.2236 11.2691 17.1016 10.9669 16.8574 10.7228C16.6133 10.4786 16.3115 10.357 15.9521 10.3578C15.5918 10.3578 15.2896 10.4799 15.0454 10.724C14.8013 10.9682 14.6797 11.27 14.6805 11.6294C14.6805 11.9897 14.8026 12.2919 15.0467 12.536C15.2909 12.7802 15.5926 12.9018 15.9521 12.901ZM18.4952 10.3578C18.8555 10.3578 19.1577 10.2358 19.4018 9.99161C19.646 9.74747 19.7676 9.44569 19.7668 9.08626C19.7668 8.72598 19.6447 8.42378 19.4006 8.17964C19.1564 7.93549 18.8546 7.81385 18.4952 7.8147C18.1349 7.8147 17.8327 7.93677 17.5886 8.18091C17.3444 8.42505 17.2228 8.72683 17.2236 9.08626C17.2236 9.44654 17.3457 9.74875 17.5898 9.99289C17.834 10.237 18.1358 10.3587 18.4952 10.3578ZM18.4952 15.4441C18.8555 15.4441 19.1577 15.322 19.4018 15.0779C19.646 14.8337 19.7676 14.5319 19.7668 14.1725C19.7668 13.8122 19.6447 13.51 19.4006 13.2659C19.1564 13.0218 18.8546 12.9001 18.4952 12.901C18.1349 12.901 17.8327 13.023 17.5886 13.2672C17.3444 13.5113 17.2228 13.8131 17.2236 14.1725C17.2236 14.5328 17.3457 14.835 17.5898 15.0791C17.834 15.3233 18.1358 15.4449 18.4952 15.4441ZM21.0383 12.901C21.3986 12.901 21.7008 12.7789 21.945 12.5347C22.1891 12.2906 22.3107 11.9888 22.3099 11.6294C22.3099 11.2691 22.1878 10.9669 21.9437 10.7228C21.6995 10.4786 21.3978 10.357 21.0383 10.3578C20.6781 10.3578 20.3758 10.4799 20.1317 10.724C19.8876 10.9682 19.7659 11.27 19.7668 11.6294C19.7668 11.9897 19.8888 12.2919 20.133 12.536C20.3771 12.7802 20.6789 12.9018 21.0383 12.901ZM9.59425 14.8083C9.86976 14.8083 10.0974 14.718 10.2771 14.5375C10.4568 14.3569 10.5471 14.1293 10.5479 13.8546V12.5831H11.8195C12.095 12.5831 12.3226 12.4928 12.5023 12.3122C12.682 12.1317 12.7723 11.904 12.7732 11.6294C12.7732 11.3539 12.6829 11.1263 12.5023 10.9466C12.3218 10.7668 12.0941 10.6766 11.8195 10.6757H10.5479V9.40415C10.5479 9.12865 10.4576 8.90104 10.2771 8.72132C10.0965 8.54161 9.86891 8.45133 9.59425 8.45048C9.31874 8.45048 9.09114 8.54076 8.91142 8.72132C8.73171 8.90188 8.64142 9.12949 8.64058 9.40415V10.6757H7.36901C7.09351 10.6757 6.8659 10.766 6.68618 10.9466C6.50647 11.1271 6.41619 11.3547 6.41534 11.6294C6.41534 11.9049 6.50562 12.1325 6.68618 12.3122C6.86674 12.4919 7.09435 12.5822 7.36901 12.5831H8.64058V13.8546C8.64058 14.1301 8.73086 14.3577 8.91142 14.5375C9.09198 14.7172 9.31959 14.8075 9.59425 14.8083Z" fill="#121212"/>
</svg>
