<svg width="20" height="20" viewBox="0 0 20 20" fill="none" xmlns="http://www.w3.org/2000/svg">
<g clip-path="url(#clip0_48_11567)">
<path d="M9.99066 0.5C4.74657 0.5 0.5 4.75607 0.5 10.0002C0.5 15.2443 4.74657 19.5003 9.99066 19.5003C15.2443 19.5003 19.5003 15.2443 19.5003 10.0002C19.5003 4.75607 15.2443 0.5 9.99066 0.5ZM13.8002 13.8002C13.7123 13.8883 13.6079 13.9582 13.493 14.0058C13.3781 14.0535 13.2549 14.0781 13.1305 14.0781C13.006 14.0781 12.8828 14.0535 12.7679 14.0058C12.653 13.9582 12.5486 13.8883 12.4607 13.8002L9.33515 10.6747C9.24539 10.5867 9.17397 10.4818 9.12505 10.366C9.07613 10.2502 9.05067 10.1259 9.05015 10.0002V6.2001C9.05015 5.67759 9.47765 5.25008 10.0002 5.25008C10.5227 5.25008 10.9502 5.67759 10.9502 6.2001V9.61066L13.8002 12.4607C14.1707 12.8312 14.1707 13.4297 13.8002 13.8002Z" fill="#121212"/>
</g>
<defs>
<clipPath id="clip0_48_11567">
<rect width="20" height="20" fill="white"/>
</clipPath>
</defs>
</svg>
