<svg width="28" height="28" viewBox="0 0 28 28" fill="none" xmlns="http://www.w3.org/2000/svg">
<path d="M6 23.1667V23.8667C6 24.4222 5.81111 24.8889 5.43334 25.2667C5.05556 25.6444 4.57778 25.8333 4 25.8333C3.44445 25.8333 2.972 25.6387 2.58267 25.2493C2.19334 24.86 1.99911 24.388 2 23.8333V13.8333L4.8 5.83333C4.93334 5.43333 5.172 5.11111 5.516 4.86667C5.86 4.62222 6.24356 4.5 6.66667 4.5H21.3333C21.7556 4.5 22.1391 4.62222 22.484 4.86667C22.8289 5.11111 23.0676 5.43333 23.2 5.83333L26 13.8333V23.8667C26 24.4222 25.8111 24.8889 25.4333 25.2667C25.0556 25.6444 24.5778 25.8333 24 25.8333C23.4444 25.8333 22.9724 25.6387 22.584 25.2493C22.1956 24.86 22.0009 24.388 22 23.8333V23.1667H6ZM5.73334 11.1667H22.2667L20.8667 7.16667H7.13334L5.73334 11.1667ZM8 19.1667C8.55556 19.1667 9.028 18.972 9.41733 18.5827C9.80667 18.1933 10.0009 17.7213 10 17.1667C10 16.6111 9.80534 16.1387 9.416 15.7493C9.02667 15.36 8.55467 15.1658 8 15.1667C7.44445 15.1667 6.972 15.3613 6.58267 15.7507C6.19334 16.14 5.99911 16.612 6 17.1667C6 17.7222 6.19467 18.1947 6.584 18.584C6.97334 18.9733 7.44534 19.1676 8 19.1667ZM20 19.1667C20.5556 19.1667 21.028 18.972 21.4173 18.5827C21.8067 18.1933 22.0009 17.7213 22 17.1667C22 16.6111 21.8053 16.1387 21.416 15.7493C21.0267 15.36 20.5547 15.1658 20 15.1667C19.4444 15.1667 18.972 15.3613 18.5827 15.7507C18.1933 16.14 17.9991 16.612 18 17.1667C18 17.7222 18.1947 18.1947 18.584 18.584C18.9733 18.9733 19.4453 19.1676 20 19.1667Z" fill="#121212"/>
</svg>
