<svg width="32" height="32" viewBox="0 0 32 32" fill="none" xmlns="http://www.w3.org/2000/svg">
<path d="M6.27778 29.5539C5.51389 29.5539 4.86019 29.2822 4.31667 28.7387C3.77315 28.1951 3.50093 27.541 3.5 26.7762V20.4567L7.31944 16.1164L9.29861 18.0956L6.52083 21.2206H25.4792L22.7708 18.165L24.75 16.1859L28.5 20.4567V26.7762C28.5 27.54 28.2282 28.1942 27.6847 28.7387C27.1412 29.2831 26.487 29.5549 25.7222 29.5539H6.27778ZM14.0556 18.9984L9.22917 14.1025C8.69676 13.5701 8.43056 12.9104 8.43056 12.1234C8.43056 11.3363 8.69676 10.6766 9.22917 10.1442L16.0347 3.33865C16.5671 2.80624 17.2269 2.54004 18.0139 2.54004C18.8009 2.54004 19.4606 2.80624 19.9931 3.33865L24.8889 8.16504C25.4213 8.69745 25.6935 9.35115 25.7056 10.1262C25.7176 10.9012 25.4569 11.5553 24.9236 12.0887L17.9792 19.0331C17.4468 19.5655 16.7931 19.8262 16.0181 19.815C15.2431 19.8039 14.5889 19.5317 14.0556 18.9984ZM22.9444 10.1095L18.0139 5.24837L11.1389 12.1234L16.0694 16.9845L22.9444 10.1095Z" fill="#121212"/>
</svg>
